<svg xmlns="http://www.w3.org/2000/svg" viewBox="0 0 135.33 149.28"><defs><style>.cls-1{fill:#fff;}</style></defs><title>quote area</title><g id="Layer_1" data-name="Layer 1"><rect class="cls-1" y="15.51" width="135.33" height="0.5"/><path class="cls-1" d="M66.2,127.13v2.07a3.46,3.46,0,0,0-1.26,1.16,5.74,5.74,0,0,0-.66,1.45,6.42,6.42,0,0,0-.22,1.7H66.2V138H61.68v-2.8a11.9,11.9,0,0,1,.48-3.86,7.27,7.27,0,0,1,1.48-2.44A7.46,7.46,0,0,1,66.2,127.13Zm6.64,0v2.07a3.46,3.46,0,0,0-1.26,1.16,5.74,5.74,0,0,0-.66,1.45,6,6,0,0,0-.22,1.7h2.14V138H68.32v-2.8a11.9,11.9,0,0,1,.48-3.86,7.41,7.41,0,0,1,1.47-2.44A7.32,7.32,0,0,1,72.84,127.13Z"/><rect class="cls-1" y="133.27" width="56.23" height="0.5"/><rect class="cls-1" x="79.1" y="133.27" width="56.23" height="0.5"/><path class="cls-1" d="M67.66,145.2a11.69,11.69,0,1,1,11.69-11.68A11.69,11.69,0,0,1,67.66,145.2Zm0-22.87a11.19,11.19,0,1,0,11.19,11.19A11.2,11.2,0,0,0,67.66,122.33Z"/></g></svg>